<svg xmlns="http://www.w3.org/2000/svg" xmlns:xlink="http://www.w3.org/1999/xlink" width="2246px" height="436px" viewBox="0 0 2245.6508904037546 436.33978843259683">
    <g id="3d05bff9-2486-411f-993a-c368fb38925e">
<g style="">
		<g id="3d05bff9-2486-411f-993a-c368fb38925e-child-0">
<path style="stroke: rgb(193,193,193); stroke-width: 0; stroke-dasharray: none; stroke-linecap: butt; stroke-dashoffset: 0; stroke-linejoin: miter; stroke-miterlimit: 4; fill: rgb(255,255,255); fill-rule: nonzero; opacity: 1;" transform="matrix(1.743753 0 0 1.752219 1122.825446 218.169894) matrix(1 0 0 1 0 0)  translate(-714.663126, -189.39066)" d="M 456.00 313.43 C 454.62 313.19 450.12 312.49 446.00 311.88 C 408.80 306.38 372.84 278.91 355.60 242.82 C 346.95 224.71 344.00 211.03 344.00 188.98 C 344.00 166.18 347.79 150.68 358.18 131.00 C 373.25 102.45 398.04 81.64 429.50 71.13 C 447.01 65.28 465.83 63.69 485.28 66.42 C 512.97 70.31 535.05 81.36 554.76 101.18 C 567.63 114.13 572.68 120.88 578.92 133.50 C 588.17 152.19 592.25 169.99 591.78 189.63 L 591.50 201.50 L 480.16 201.75 L 368.83 202.01 L 369.49 206.25 C 372.75 227.03 387.31 251.97 404.21 265.75 C 411.24 271.47 426.38 280.99 428.48 281.01 C 429.04 281.01 430.73 281.65 432.23 282.44 C 433.73 283.22 438.91 284.90 443.73 286.18 C 451.32 288.19 454.71 288.49 469.00 288.39 C 487.64 288.27 493.66 286.99 508.81 279.94 C 529.56 270.28 543.97 256.95 555.28 236.93 L 560.61 227.50 L 572.82 227.22 C 582.25 227.00 585.16 227.24 585.55 228.26 C 586.25 230.10 580.82 242.93 575.51 251.97 C 557.21 283.11 526.04 305.23 491.50 311.57 C 483.44 313.05 460.64 314.25 456.00 313.43 z M 565.67 171.10 C 564.00 155.12 550.50 130.13 536.62 117.32 C 521.72 103.56 502.05 93.89 482.96 90.93 C 472.28 89.27 453.36 90.21 443.00 92.92 C 409.51 101.68 382.08 128.27 372.27 161.50 C 369.25 171.75 368.70 175.72 370.22 176.33 C 370.92 176.61 415.33 176.88 468.89 176.92 L 566.28 177.00 z M 951.50 313.34 C 950.40 313.11 945.92 312.23 941.53 311.38 C 900.46 303.48 865.01 272.71 849.96 231.90 C 839.97 204.79 840.21 171.63 850.59 144.57 C 866.54 103.00 903.14 73.59 948.29 66.06 C 958.00 64.44 978.42 64.66 989.04 66.51 C 1033.32 74.19 1070.35 105.89 1084.81 148.50 C 1087.65 156.87 1091.00 170.91 1091.00 174.46 C 1091.00 175.77 1089.05 176.00 1078.05 176.00 L 1065.09 176.00 L 1064.46 172.25 C 1061.06 152.19 1050.34 132.26 1035.15 117.79 C 1013.58 97.23 986.94 87.87 956.61 90.18 C 904.40 94.15 862.99 142.44 866.46 195.32 C 868.96 233.52 892.04 266.05 927.25 281.04 C 941.21 286.98 948.89 288.43 966.50 288.43 C 978.72 288.43 984.03 288.01 989.00 286.66 C 1013.32 280.02 1031.50 268.02 1045.27 249.53 C 1054.80 236.73 1060.63 223.41 1064.44 205.75 L 1065.04 203.00 L 1078.11 203.00 L 1091.19 203.00 L 1090.51 208.25 C 1088.15 226.53 1079.60 247.27 1067.95 262.98 C 1043.58 295.85 1006.52 314.26 965.50 313.88 C 958.90 313.82 952.60 313.58 951.50 313.34 z M 1216.00 312.89 C 1187.36 308.34 1162.99 295.59 1143.78 275.12 C 1102.01 230.62 1098.18 162.59 1134.70 114.00 C 1144.71 100.68 1162.87 85.64 1178.43 77.78 C 1206.90 63.40 1244.12 60.83 1274.50 71.14 C 1316.26 85.32 1347.11 120.57 1356.67 165.03 C 1359.21 176.82 1359.21 202.18 1356.68 214.00 C 1345.60 265.76 1305.50 304.10 1253.67 312.50 C 1243.78 314.11 1224.88 314.30 1216.00 312.89 z M 1259.43 286.11 C 1276.99 281.42 1291.18 272.99 1305.00 259.06 C 1325.28 238.61 1335.00 213.34 1333.68 184.50 C 1332.52 159.09 1322.65 136.85 1304.63 119.04 C 1295.54 110.06 1288.47 105.13 1276.50 99.42 C 1260.51 91.78 1254.22 90.49 1233.50 90.57 C 1216.84 90.63 1214.83 90.84 1206.56 93.37 C 1166.96 105.47 1138.82 139.72 1135.16 180.25 C 1131.38 222.04 1152.81 260.10 1190.50 278.53 C 1200.21 283.28 1211.16 286.86 1220.50 288.34 C 1222.15 288.60 1229.80 288.69 1237.50 288.52 C 1247.85 288.30 1253.57 287.67 1259.43 286.11 z M 171.00 311.89 C 132.93 303.30 102.26 280.75 84.91 248.58 C 81.71 242.64 76.00 229.12 76.00 227.48 C 76.00 227.21 81.87 227.00 89.05 227.00 L 102.10 227.00 L 103.64 230.75 C 106.75 238.30 117.90 253.64 125.66 261.03 C 134.98 269.91 142.15 274.81 153.49 280.05 C 167.86 286.69 176.10 288.38 194.50 288.44 C 208.36 288.49 211.63 288.18 218.96 286.14 C 245.93 278.63 267.34 262.10 281.28 238.00 C 286.70 228.65 293.00 210.32 293.00 203.94 C 293.00 202.03 291.15 202.00 181.88 202.00 L 70.75 202.00 L 71.29 184.25 C 71.95 162.08 75.18 148.87 84.18 131.53 C 93.06 114.39 114.80 91.45 130.50 82.62 C 139.54 77.54 141.99 76.30 147.00 74.28 C 163.01 67.81 175.24 65.59 195.00 65.59 C 214.88 65.59 223.47 67.12 239.50 73.49 C 261.39 82.19 280.23 96.54 294.64 115.50 C 302.18 125.42 313.72 148.69 312.57 151.67 C 312.19 152.67 309.10 153.00 300.05 153.00 L 288.03 153.00 L 285.39 147.75 C 278.13 133.35 266.50 119.27 254.00 109.76 C 245.67 103.41 229.86 95.79 219.00 92.87 C 211.85 90.95 207.95 90.58 194.50 90.56 C 180.95 90.53 177.12 90.89 169.50 92.85 C 142.11 99.92 117.44 120.47 104.27 147.18 C 98.40 159.11 94.60 174.50 97.14 176.11 C 97.89 176.58 140.62 176.98 192.09 176.98 C 243.56 176.99 293.18 177.30 302.34 177.66 L 319.00 178.31 L 318.98 184.41 C 318.94 200.78 315.04 226.68 312.05 230.50 C 311.61 231.05 310.70 233.30 310.02 235.50 C 306.88 245.62 293.84 265.80 283.87 276.00 C 268.13 292.08 250.20 302.75 227.44 309.58 C 219.16 312.07 216.77 313.60 196.85 313.89 C 184.62 314.08 173.56 312.47 171.00 311.89 z M 712.24 305.27 C 709.46 301.00 683.61 258.12 654.79 210.00 C 625.97 161.88 594.99 110.14 585.95 95.04 C 576.90 79.94 569.35 67.00 569.18 66.29 C 568.91 65.24 586.38 65.00 661.93 65.00 L 755.00 65.00 L 755.00 77.98 L 755.00 90.96 L 687.08 91.23 C 649.73 91.38 618.85 91.82 618.46 92.20 C 618.07 92.59 619.92 96.64 622.55 101.20 C 629.08 112.48 648.68 146.14 659.57 164.77 C 664.48 173.17 668.95 180.85 669.50 181.83 C 681.07 202.56 716.63 261.49 717.53 261.42 C 718.06 261.38 720.48 258.01 722.89 253.92 C 727.03 246.93 742.43 220.72 745.91 214.77 C 749.36 208.85 771.86 170.65 780.52 156.00 C 785.56 147.48 794.09 132.85 799.47 123.50 C 804.85 114.15 809.98 105.38 810.86 104.00 C 813.69 99.57 817.00 93.12 817.00 92.05 C 817.00 91.36 810.71 91.00 798.50 91.00 L 780.00 91.00 L 780.00 78.00 L 780.00 65.00 L 806.75 65.00 C 841.59 65.01 865.01 65.97 864.97 67.41 C 864.95 68.01 855.39 84.36 843.72 103.75 C 832.05 123.13 803.38 170.83 780.01 209.75 C 738.49 278.89 718.61 311.73 717.72 312.61 C 717.48 312.85 715.01 309.55 712.24 305.27 z" stroke-linecap="round"/>
</g>
</g>
</g>

  </svg>